<?xml version="1.0" standalone="no"?>
<!DOCTYPE svg PUBLIC "-//W3C//DTD SVG 20010904//EN"
 "http://www.w3.org/TR/2001/REC-SVG-20010904/DTD/svg10.dtd">
<svg version="1.0" xmlns="http://www.w3.org/2000/svg"
 width="356.000000pt" height="356.000000pt" viewBox="0 0 356.000000 356.000000"
 preserveAspectRatio="xMidYMid meet">
<metadata>
Created by potrace 1.14, written by Peter Selinger 2001-2017
</metadata>
<g transform="translate(0.000000,356.000000) scale(0.100000,-0.100000)"
fill="#000000" stroke="none">
<path d="M2600 2678 c-11 -18 -25 -56 -31 -85 -12 -50 -13 -52 -30 -37 -12 11
-40 16 -93 17 -83 2 -105 -11 -106 -65 0 -36 52 -56 87 -33 12 9 23 20 23 25
0 15 37 12 69 -4 15 -8 47 -40 70 -71 40 -52 44 -55 57 -38 7 10 14 23 14 30
0 17 33 87 43 91 4 2 7 10 7 18 0 10 12 14 38 14 21 0 47 7 58 15 19 15 18 16
-9 40 -21 18 -35 24 -50 19 -35 -11 -78 -44 -97 -76 -21 -34 -28 -27 -36 36
-6 43 -5 46 22 56 37 14 45 28 31 57 -15 33 -44 29 -67 -9z"/>
<path d="M576 2536 c6 -14 33 -30 41 -23 9 10 -11 37 -28 37 -12 0 -16 -5 -13
-14z"/>
<path d="M601 2471 c-11 -7 -10 -13 5 -35 11 -14 27 -28 37 -31 9 -4 15 -10
12 -15 -3 -4 2 -11 11 -14 8 -3 12 -2 9 4 -3 5 5 15 19 21 26 12 26 35 0 25
-10 -4 -14 3 -14 24 0 27 -3 30 -32 30 -18 0 -39 -4 -47 -9z"/>
<path d="M2315 2450 c3 -5 8 -10 11 -10 2 0 4 5 4 10 0 6 -5 10 -11 10 -5 0
-7 -4 -4 -10z"/>
<path d="M963 2390 c-75 -30 -45 -207 52 -303 45 -45 50 -47 62 -31 7 10 13
28 13 40 0 35 47 84 80 84 42 0 59 9 75 40 17 34 12 40 -35 40 -43 0 -113 -54
-134 -104 l-13 -31 -8 27 c-8 30 12 101 25 93 5 -3 16 5 25 19 14 20 14 28 3
45 -7 11 -19 23 -26 26 -17 6 -70 -49 -78 -81 -3 -13 -10 -21 -15 -18 -13 7
-11 84 1 84 18 0 32 51 19 66 -13 16 -16 16 -46 4z"/>
<path d="M2110 2375 c-8 -9 -8 -15 -2 -15 12 0 26 19 19 26 -2 2 -10 -2 -17
-11z"/>
<path d="M2230 2300 c0 -5 5 -10 10 -10 6 0 10 5 10 10 0 6 -4 10 -10 10 -5 0
-10 -4 -10 -10z"/>
<path d="M748 2044 c-16 -16 -13 -64 4 -64 6 0 7 7 4 16 -3 8 -1 25 5 36 14
25 7 32 -13 12z"/>
<path d="M1551 2044 c0 -11 3 -14 6 -6 3 7 2 16 -1 19 -3 4 -6 -2 -5 -13z"/>
<path d="M1337 1999 c-3 -13 -1 -19 6 -16 15 5 22 37 9 37 -5 0 -12 -9 -15
-21z"/>
<path d="M775 2000 c-4 -6 2 -9 14 -7 29 4 39 17 13 17 -11 0 -24 -5 -27 -10z"/>
<path d="M1436 2001 c-15 -6 -16 -10 -7 -15 8 -5 20 -2 29 8 17 17 9 19 -22 7z"/>
<path d="M1491 1963 c-9 -15 -12 -16 -20 -3 -9 12 -12 12 -28 -2 -10 -8 -24
-13 -30 -11 -7 3 -13 -2 -13 -11 0 -10 -9 -16 -21 -16 -16 0 -19 -4 -15 -17 4
-9 2 -19 -4 -23 -8 -5 -7 -11 3 -22 8 -8 15 -27 15 -42 0 -15 7 -35 16 -44 15
-15 17 -15 29 2 8 11 19 16 25 12 8 -4 12 0 12 12 0 10 3 22 7 25 10 11 32
-13 26 -29 -7 -18 10 -18 46 1 32 16 61 84 61 142 0 34 -12 41 -39 24 -9 -6
-19 -4 -28 5 -19 19 -30 18 -42 -3z m-51 -67 c0 -8 10 -21 23 -29 l22 -16 -22
6 c-13 3 -23 9 -23 13 0 4 -10 10 -22 13 -18 5 -19 8 -9 21 14 17 31 12 31 -8z
m115 -6 c3 -5 -1 -10 -9 -10 -9 0 -16 5 -16 10 0 6 4 10 9 10 6 0 13 -4 16
-10z"/>
<path d="M620 1920 c0 -5 -12 -17 -26 -26 -22 -15 -27 -15 -34 -3 -11 18 -24
5 -16 -16 4 -11 12 -14 27 -10 21 7 46 13 62 14 11 1 8 51 -3 51 -5 0 -10 -4
-10 -10z"/>
<path d="M1320 1920 c0 -5 5 -10 10 -10 6 0 10 5 10 10 0 6 -4 10 -10 10 -5 0
-10 -4 -10 -10z"/>
<path d="M508 1873 c7 -3 16 -2 19 1 4 3 -2 6 -13 5 -11 0 -14 -3 -6 -6z"/>
<path d="M1290 1856 c0 -9 5 -16 10 -16 6 0 10 4 10 9 0 6 -4 13 -10 16 -5 3
-10 -1 -10 -9z"/>
<path d="M1320 1838 l-25 -9 24 -20 c26 -21 41 -17 41 11 0 25 -10 30 -40 18z"/>
<path d="M2380 1105 c-35 -57 -38 -108 -6 -149 31 -41 32 -46 8 -46 -25 0
-103 57 -100 73 9 47 -36 73 -74 43 -38 -28 -19 -84 45 -133 38 -30 129 -41
161 -20 13 9 32 14 43 11 15 -4 24 6 43 48 24 51 27 53 70 58 25 3 51 9 58 13
34 22 -6 95 -45 83 -29 -9 -82 -65 -104 -108 -11 -21 -26 -38 -34 -38 -22 0
-47 45 -43 77 2 23 8 29 35 31 44 4 57 46 23 74 -33 27 -56 22 -80 -17z"/>
<path d="M2641 775 c-24 -8 -29 -14 -18 -18 10 -4 13 -13 10 -26 -3 -13 3 -25
22 -37 25 -16 28 -16 36 -2 7 13 23 16 76 13 58 -2 70 0 81 16 9 13 20 18 33
14 18 -6 19 -5 7 14 -10 16 -23 21 -60 21 -26 0 -50 5 -53 10 -4 7 -12 7 -24
0 -10 -5 -20 -8 -22 -6 -13 11 -59 11 -88 1z"/>
<path d="M2570 740 c0 -6 7 -10 15 -10 8 0 15 2 15 4 0 2 -7 6 -15 10 -8 3
-15 1 -15 -4z"/>
<path d="M2515 506 c-36 -11 -38 -13 -17 -20 27 -9 58 0 66 19 6 17 4 17 -49
1z"/>
</g>
</svg>
